<svg width="16" height="16" fill="none" xmlns="http://www.w3.org/2000/svg"><path opacity=".67" fill-rule="evenodd" clip-rule="evenodd" d="M5.5 16h8c.827 0 1.5-.673 1.5-1.5v-13c0-.827-.673-1.5-1.5-1.5h-8C4.673 0 4 .673 4 1.5v13c0 .827.673 1.5 1.5 1.5zM5 1.5a.5.5 0 0 1 .5-.5h8a.5.5 0 0 1 .5.5v13a.5.5 0 0 1-.5.5h-8a.5.5 0 0 1-.5-.5v-13z" fill="#605E5C"/><path d="M15.438 5H15V1h.438c.315 0 .562.26.562.594v2.812c0 .333-.247.594-.563.594h.001z" fill="#AE4BD5"/><path d="M15.438 10H15V6h.438c.315 0 .562.26.562.594v2.812c0 .333-.247.594-.563.594h.001z" fill="#9332BF"/><path d="M15.438 15H15v-4h.438c.315 0 .562.26.562.594v2.812c0 .333-.247.594-.563.594h.001z" fill="#7719AA"/><path d="M5.5 15h8a.5.5 0 0 0 .5-.5v-13a.5.5 0 0 0-.5-.5h-8a.5.5 0 0 0-.5.5v13a.5.5 0 0 0 .5.5z" fill="#fff"/><path d="M1 13h7a1 1 0 0 0 1-1V5a1 1 0 0 0-1-1H1a1 1 0 0 0-1 1v7a1 1 0 0 0 1 1z" fill="#7719AA"/><path d="M2.417 10.896V6.443h.085l3.981 3.989.059-.001V6.057" stroke="#fff"/></svg>