<svg xmlns="http://www.w3.org/2000/svg" width="512" height="512" fill="none"><rect width="428" height="135" x="36" y="176" fill="url(#a)" rx="21"/><rect width="428" height="135" x="36" y="176" fill="url(#b)" fill-opacity=".5" rx="21"/><rect width="428" height="135" x="36" y="176" fill="url(#c)" fill-opacity=".8" rx="21"/><rect width="428" height="135" x="36" y="176" fill="url(#d)" rx="21"/><path fill="url(#e)" d="M321.055 311c37.921-34.336 44.284-93.454 14.592-135H169.978c-29.692 41.546-23.329 100.664 14.592 135h136.485Z"/><path fill="url(#f)" fill-opacity=".8" d="M321.055 311c37.921-34.336 44.284-93.454 14.592-135H169.978c-29.692 41.546-23.329 100.664 14.592 135h136.485Z"/><path fill="url(#g)" fill-opacity=".8" d="M321.055 311c37.921-34.336 44.284-93.454 14.592-135H169.978c-29.692 41.546-23.329 100.664 14.592 135h136.485Z"/><path fill="url(#h)" fill-opacity=".8" d="M321.055 311c37.921-34.336 44.284-93.454 14.592-135H169.978c-29.692 41.546-23.329 100.664 14.592 135h136.485Z"/><path fill="url(#i)" fill-opacity=".8" d="M321.055 311c37.921-34.336 44.284-93.454 14.592-135H169.978c-29.692 41.546-23.329 100.664 14.592 135h136.485Z"/><path fill="url(#j)" fill-opacity=".8" d="M321.055 311c37.921-34.336 44.284-93.454 14.592-135H169.978c-29.692 41.546-23.329 100.664 14.592 135h136.485Z"/><g fill="#AC76FF" clip-path="url(#k)"><path d="M187 182.5c0 .83.67 1.5 1.5 1.5s1.5-.67 1.5-1.5-.67-1.5-1.5-1.5-1.5.67-1.5 1.5ZM323.5 199c-.83 0-1.5-.67-1.5-1.5s.67-1.5 1.5-1.5 1.5.67 1.5 1.5-.67 1.5-1.5 1.5ZM219 197.5c0 .83.67 1.5 1.5 1.5s1.5-.67 1.5-1.5-.67-1.5-1.5-1.5-1.5.67-1.5 1.5ZM198.75 202.96c-.83 0-1.5-.67-1.5-1.5s.67-1.5 1.5-1.5 1.5.67 1.5 1.5-.67 1.5-1.5 1.5ZM159 221.5c0 .83.67 1.5 1.5 1.5s1.5-.67 1.5-1.5-.67-1.5-1.5-1.5-1.5.67-1.5 1.5ZM166.5 245c-.83 0-1.5-.67-1.5-1.5s.67-1.5 1.5-1.5 1.5.67 1.5 1.5-.67 1.5-1.5 1.5ZM266 289.5c0 .83.67 1.5 1.5 1.5s1.5-.67 1.5-1.5-.67-1.5-1.5-1.5-1.5.67-1.5 1.5ZM327 259.04c-.83 0-1.5-.67-1.5-1.5s.67-1.5 1.5-1.5 1.5.67 1.5 1.5-.67 1.5-1.5 1.5ZM266 213.5c0 .83.67 1.5 1.5 1.5s1.5-.67 1.5-1.5-.67-1.5-1.5-1.5-1.5.67-1.5 1.5ZM206 194a1 1 0 1 1 0-2 1 1 0 1 1 0 2ZM279 183c-.55 0-1-.45-1-1s.45-1 1-1 1 .45 1 1-.45 1-1 1ZM229.75 213.29c0 .55.45 1 1 1s1-.45 1-1-.45-1-1-1-1 .45-1 1ZM302 305c-.55 0-1-.45-1-1s.45-1 1-1 1 .45 1 1-.45 1-1 1ZM211 302c0 .55.45 1 1 1s1-.45 1-1-.45-1-1-1-1 .45-1 1ZM168 230c-.55 0-1-.45-1-1s.45-1 1-1 1 .45 1 1-.45 1-1 1Z"/></g><path fill="url(#l)" fill-rule="evenodd" d="M249.34 75C159.13 75 86 148.022 86 238.099c0 90.077 73.13 163.099 163.34 163.099 30.428 0 58.914-8.308 83.304-22.777 4.089-2.425 9.337-1.928 12.701 1.431l61.056 60.965c12.261 12.244 32.141 12.244 44.403 0 12.261-12.243 12.261-32.094 0-44.337l-60.655-60.565c-3.408-3.403-3.877-8.736-1.361-12.843 15.156-24.747 23.892-53.841 23.892-84.973C412.68 148.022 339.55 75 249.34 75Zm-95.678 163.099c0-52.764 42.836-95.537 95.678-95.537 52.841 0 95.678 42.773 95.678 95.537 0 35.096-18.952 65.772-47.195 82.38-14.218 8.361-30.789 13.157-48.483 13.157-34.276 0-64.343-17.998-81.239-45.045-9.152-14.65-14.439-31.954-14.439-50.492Z" clip-rule="evenodd"/><path fill="url(#m)" fill-rule="evenodd" d="M249.34 75C159.13 75 86 148.022 86 238.099c0 90.077 73.13 163.099 163.34 163.099 30.428 0 58.914-8.308 83.304-22.777 4.089-2.425 9.337-1.928 12.701 1.431l61.056 60.965c12.261 12.244 32.141 12.244 44.403 0 12.261-12.243 12.261-32.094 0-44.337l-60.655-60.565c-3.408-3.403-3.877-8.736-1.361-12.843 15.156-24.747 23.892-53.841 23.892-84.973C412.68 148.022 339.55 75 249.34 75Zm-95.678 163.099c0-52.764 42.836-95.537 95.678-95.537 52.841 0 95.678 42.773 95.678 95.537 0 35.096-18.952 65.772-47.195 82.38-14.218 8.361-30.789 13.157-48.483 13.157-34.276 0-64.343-17.998-81.239-45.045-9.152-14.65-14.439-31.954-14.439-50.492Z" clip-rule="evenodd"/><path fill="url(#n)" fill-rule="evenodd" d="M249.34 75C159.13 75 86 148.022 86 238.099c0 90.077 73.13 163.099 163.34 163.099 30.428 0 58.914-8.308 83.304-22.777 4.089-2.425 9.337-1.928 12.701 1.431l61.056 60.965c12.261 12.244 32.141 12.244 44.403 0 12.261-12.243 12.261-32.094 0-44.337l-60.655-60.565c-3.408-3.403-3.877-8.736-1.361-12.843 15.156-24.747 23.892-53.841 23.892-84.973C412.68 148.022 339.55 75 249.34 75Zm-95.678 163.099c0-52.764 42.836-95.537 95.678-95.537 52.841 0 95.678 42.773 95.678 95.537 0 35.096-18.952 65.772-47.195 82.38-14.218 8.361-30.789 13.157-48.483 13.157-34.276 0-64.343-17.998-81.239-45.045-9.152-14.65-14.439-31.954-14.439-50.492Z" clip-rule="evenodd"/><path fill="url(#o)" fill-rule="evenodd" d="M249.34 75C159.13 75 86 148.022 86 238.099c0 90.077 73.13 163.099 163.34 163.099 30.428 0 58.914-8.308 83.304-22.777 4.089-2.425 9.337-1.928 12.701 1.431l61.056 60.965c12.261 12.244 32.141 12.244 44.403 0 12.261-12.243 12.261-32.094 0-44.337l-60.655-60.565c-3.408-3.403-3.877-8.736-1.361-12.843 15.156-24.747 23.892-53.841 23.892-84.973C412.68 148.022 339.55 75 249.34 75Zm-95.678 163.099c0-52.764 42.836-95.537 95.678-95.537 52.841 0 95.678 42.773 95.678 95.537 0 35.096-18.952 65.772-47.195 82.38-14.218 8.361-30.789 13.157-48.483 13.157-34.276 0-64.343-17.998-81.239-45.045-9.152-14.65-14.439-31.954-14.439-50.492Z" clip-rule="evenodd"/><path fill="url(#p)" fill-rule="evenodd" d="M249.34 75C159.13 75 86 148.022 86 238.099c0 90.077 73.13 163.099 163.34 163.099 30.428 0 58.914-8.308 83.304-22.777 4.089-2.425 9.337-1.928 12.701 1.431l61.056 60.965c12.261 12.244 32.141 12.244 44.403 0 12.261-12.243 12.261-32.094 0-44.337l-60.655-60.565c-3.408-3.403-3.877-8.736-1.361-12.843 15.156-24.747 23.892-53.841 23.892-84.973C412.68 148.022 339.55 75 249.34 75Zm-95.678 163.099c0-52.764 42.836-95.537 95.678-95.537 52.841 0 95.678 42.773 95.678 95.537 0 35.096-18.952 65.772-47.195 82.38-14.218 8.361-30.789 13.157-48.483 13.157-34.276 0-64.343-17.998-81.239-45.045-9.152-14.65-14.439-31.954-14.439-50.492Z" clip-rule="evenodd"/><path fill="url(#q)" fill-rule="evenodd" d="M249.34 75C159.13 75 86 148.022 86 238.099c0 90.077 73.13 163.099 163.34 163.099 30.428 0 58.914-8.308 83.304-22.777 4.089-2.425 9.337-1.928 12.701 1.431l61.056 60.965c12.261 12.244 32.141 12.244 44.403 0 12.261-12.243 12.261-32.094 0-44.337l-60.655-60.565c-3.408-3.403-3.877-8.736-1.361-12.843 15.156-24.747 23.892-53.841 23.892-84.973C412.68 148.022 339.55 75 249.34 75Zm-95.678 163.099c0-52.764 42.836-95.537 95.678-95.537 52.841 0 95.678 42.773 95.678 95.537 0 35.096-18.952 65.772-47.195 82.38-14.218 8.361-30.789 13.157-48.483 13.157-34.276 0-64.343-17.998-81.239-45.045-9.152-14.65-14.439-31.954-14.439-50.492Z" clip-rule="evenodd"/><path fill="url(#r)" fill-rule="evenodd" d="M249.34 75C159.13 75 86 148.022 86 238.099c0 90.077 73.13 163.099 163.34 163.099 30.428 0 58.914-8.308 83.304-22.777 4.089-2.425 9.337-1.928 12.701 1.431l61.056 60.965c12.261 12.244 32.141 12.244 44.403 0 12.261-12.243 12.261-32.094 0-44.337l-60.655-60.565c-3.408-3.403-3.877-8.736-1.361-12.843 15.156-24.747 23.892-53.841 23.892-84.973C412.68 148.022 339.55 75 249.34 75Zm-95.678 163.099c0-52.764 42.836-95.537 95.678-95.537 52.841 0 95.678 42.773 95.678 95.537 0 35.096-18.952 65.772-47.195 82.38-14.218 8.361-30.789 13.157-48.483 13.157-34.276 0-64.343-17.998-81.239-45.045-9.152-14.65-14.439-31.954-14.439-50.492Z" clip-rule="evenodd"/><path fill="url(#s)" fill-rule="evenodd" d="M249.34 75C159.13 75 86 148.022 86 238.099c0 90.077 73.13 163.099 163.34 163.099 30.428 0 58.914-8.308 83.304-22.777 4.089-2.425 9.337-1.928 12.701 1.431l61.056 60.965c12.261 12.244 32.141 12.244 44.403 0 12.261-12.243 12.261-32.094 0-44.337l-60.655-60.565c-3.408-3.403-3.877-8.736-1.361-12.843 15.156-24.747 23.892-53.841 23.892-84.973C412.68 148.022 339.55 75 249.34 75Zm-95.678 163.099c0-52.764 42.836-95.537 95.678-95.537 52.841 0 95.678 42.773 95.678 95.537 0 35.096-18.952 65.772-47.195 82.38-14.218 8.361-30.789 13.157-48.483 13.157-34.276 0-64.343-17.998-81.239-45.045-9.152-14.65-14.439-31.954-14.439-50.492Z" clip-rule="evenodd"/><path fill="url(#t)" fill-opacity=".35" fill-rule="evenodd" d="M249.34 75C159.13 75 86 148.022 86 238.099c0 90.077 73.13 163.099 163.34 163.099 30.428 0 58.914-8.308 83.304-22.777 4.089-2.425 9.337-1.928 12.701 1.431l61.056 60.965c12.261 12.244 32.141 12.244 44.403 0 12.261-12.243 12.261-32.094 0-44.337l-60.655-60.565c-3.408-3.403-3.877-8.736-1.361-12.843 15.156-24.747 23.892-53.841 23.892-84.973C412.68 148.022 339.55 75 249.34 75Zm-95.678 163.099c0-52.764 42.836-95.537 95.678-95.537 52.841 0 95.678 42.773 95.678 95.537 0 35.096-18.952 65.772-47.195 82.38-14.218 8.361-30.789 13.157-48.483 13.157-34.276 0-64.343-17.998-81.239-45.045-9.152-14.65-14.439-31.954-14.439-50.492Z" clip-rule="evenodd"/><path fill="url(#u)" fill-opacity=".2" fill-rule="evenodd" d="M249.34 75C159.13 75 86 148.022 86 238.099c0 90.077 73.13 163.099 163.34 163.099 30.428 0 58.914-8.308 83.304-22.777 4.089-2.425 9.337-1.928 12.701 1.431l61.056 60.965c12.261 12.244 32.141 12.244 44.403 0 12.261-12.243 12.261-32.094 0-44.337l-60.655-60.565c-3.408-3.403-3.877-8.736-1.361-12.843 15.156-24.747 23.892-53.841 23.892-84.973C412.68 148.022 339.55 75 249.34 75Zm-95.678 163.099c0-52.764 42.836-95.537 95.678-95.537 52.841 0 95.678 42.773 95.678 95.537 0 35.096-18.952 65.772-47.195 82.38-14.218 8.361-30.789 13.157-48.483 13.157-34.276 0-64.343-17.998-81.239-45.045-9.152-14.65-14.439-31.954-14.439-50.492Z" clip-rule="evenodd"/><circle cx="300" cy="243" r="23" fill="url(#v)"/><circle cx="300" cy="243" r="23" fill="url(#w)" fill-opacity=".8"/><circle cx="250" cy="243" r="23" fill="url(#x)"/><circle cx="250" cy="243" r="23" fill="url(#y)" fill-opacity=".8"/><circle cx="200" cy="243" r="23" fill="url(#z)"/><circle cx="200" cy="243" r="23" fill="url(#A)" fill-opacity=".8"/><defs><radialGradient id="b" cx="0" cy="0" r="1" gradientTransform="rotate(145.267 60.064 155.461) scale(136.355 118.598)" gradientUnits="userSpaceOnUse"><stop offset=".914" stop-color="#9EA8AE"/><stop offset="1" stop-color="#D4F0F7" stop-opacity="0"/></radialGradient><radialGradient id="c" cx="0" cy="0" r="1" gradientTransform="matrix(-84.9157 0 0 -237.087 464 240.113)" gradientUnits="userSpaceOnUse"><stop stop-color="#CED1D3"/><stop offset=".436" stop-color="#E7E6E7" stop-opacity="0"/></radialGradient><radialGradient id="d" cx="0" cy="0" r="1" gradientTransform="matrix(0 66.1747 -294 0 250 161.666)" gradientUnits="userSpaceOnUse"><stop offset=".715" stop-color="#CED1D3"/><stop offset="1" stop-color="#E7E6E7" stop-opacity="0"/></radialGradient><radialGradient id="e" cx="0" cy="0" r="1" gradientTransform="rotate(119.307 121.344 151.2) scale(329.478 370.467)" gradientUnits="userSpaceOnUse"><stop offset=".128" stop-color="#E6D5D0"/><stop offset=".473" stop-color="#FCF1E8"/></radialGradient><radialGradient id="f" cx="0" cy="0" r="1" gradientTransform="rotate(171.399 106.96 150.343) scale(120.354 138.131)" gradientUnits="userSpaceOnUse"><stop offset=".603" stop-color="#F7EAE2" stop-opacity="0"/><stop offset=".782" stop-color="#B9A69A"/></radialGradient><radialGradient id="h" cx="0" cy="0" r="1" gradientTransform="matrix(20.99996 11 -17.6803 33.75327 297.2 260)" gradientUnits="userSpaceOnUse"><stop offset=".786" stop-color="#B9A69A"/><stop offset=".995" stop-color="#FCF1E8" stop-opacity="0"/></radialGradient><radialGradient id="i" cx="0" cy="0" r="1" gradientTransform="matrix(21.99997 12 -18.90156 34.6528 247.2 258)" gradientUnits="userSpaceOnUse"><stop offset=".795" stop-color="#B9A69A"/><stop offset="1" stop-color="#FFF0E4" stop-opacity="0"/></radialGradient><radialGradient id="j" cx="0" cy="0" r="1" gradientTransform="rotate(19.029 -665.918 715.11) scale(30.077 45.2165)" gradientUnits="userSpaceOnUse"><stop offset=".661" stop-color="#B9A69A"/><stop offset=".876" stop-color="#FFF0E4" stop-opacity="0"/></radialGradient><radialGradient id="l" cx="0" cy="0" r="1" gradientTransform="matrix(-43.00076 164.9998 -170.20979 -44.35854 251.2 228)" gradientUnits="userSpaceOnUse"><stop offset=".571" stop-color="#1874CA"/><stop offset=".66" stop-color="#42A7E9"/><stop offset=".802" stop-color="#54BDFF"/><stop offset="1" stop-color="#00A6FF"/></radialGradient><radialGradient id="m" cx="0" cy="0" r="1" gradientTransform="matrix(137.99964 35.59767 -17.88698 69.34154 235 325.402)" gradientUnits="userSpaceOnUse"><stop stop-color="#CFA5FF"/><stop offset=".544" stop-color="#CAA8FF"/><stop offset=".933" stop-color="#D0B3FF" stop-opacity="0"/></radialGradient><radialGradient id="n" cx="0" cy="0" r="1" gradientTransform="matrix(137.99964 35.59767 -17.88698 69.34154 235 325.402)" gradientUnits="userSpaceOnUse"><stop stop-color="#CFA5FF"/><stop offset=".544" stop-color="#CAA8FF"/><stop offset=".933" stop-color="#D0B3FF" stop-opacity="0"/></radialGradient><radialGradient id="o" cx="0" cy="0" r="1" gradientTransform="rotate(116.905 80.938 174.303) scale(346.507 330.618)" gradientUnits="userSpaceOnUse"><stop offset=".458" stop-color="#8FC8E6" stop-opacity="0"/><stop offset=".618" stop-color="#5E00C8" stop-opacity=".5"/><stop offset=".635" stop-color="#5E00C8" stop-opacity=".5"/><stop offset=".776" stop-color="#8FC8E6" stop-opacity="0"/></radialGradient><radialGradient id="p" cx="0" cy="0" r="1" gradientTransform="matrix(-123.79976 30.9999 -37.0023 -147.77068 460 400)" gradientUnits="userSpaceOnUse"><stop offset=".166" stop-color="#4ABBFC"/><stop offset=".677" stop-color="#00A6FF"/><stop offset="1" stop-color="#00A6FF" stop-opacity="0"/></radialGradient><radialGradient id="q" cx="0" cy="0" r="1" gradientTransform="rotate(135.498 107.693 300.594) scale(81.3204 311.46)" gradientUnits="userSpaceOnUse"><stop offset=".142" stop-color="#1874CA"/><stop offset=".376" stop-color="#1874CA" stop-opacity="0"/></radialGradient><radialGradient id="r" cx="0" cy="0" r="1" gradientTransform="matrix(19.49997 67.99998 -260.44198 74.68546 474.2 308.5)" gradientUnits="userSpaceOnUse"><stop offset=".107" stop-color="#1874CA"/><stop offset=".414" stop-color="#1874CA" stop-opacity="0"/></radialGradient><radialGradient id="s" cx="0" cy="0" r="1" gradientTransform="matrix(396.00002 527.99998 -545.70078 409.27562 287.2 173)" gradientUnits="userSpaceOnUse"><stop offset=".406" stop-color="#00A6FF" stop-opacity="0"/><stop offset=".475" stop-color="#1874CA"/></radialGradient><radialGradient id="t" cx="0" cy="0" r="1" gradientTransform="rotate(123.071 8.196 220.206) scale(51.3128 209.422)" gradientUnits="userSpaceOnUse"><stop stop-color="#fff"/><stop offset=".228" stop-color="#fff" stop-opacity="0"/></radialGradient><radialGradient id="u" cx="0" cy="0" r="1" gradientTransform="matrix(26 -70.49996 357.36688 131.79496 301.7 104)" gradientUnits="userSpaceOnUse"><stop offset=".023" stop-color="#fff"/><stop offset=".184" stop-color="#fff" stop-opacity="0"/></radialGradient><radialGradient id="v" cx="0" cy="0" r="1" gradientTransform="rotate(108.435 68.402 225.91) scale(42.2832)" gradientUnits="userSpaceOnUse"><stop stop-color="#F1FFB7"/><stop offset=".25" stop-color="#B9DC4E"/><stop offset=".645" stop-color="#6FB12F"/><stop offset="1" stop-color="#FF7C03"/></radialGradient><radialGradient id="w" cx="0" cy="0" r="1" gradientTransform="rotate(97.815 44.037 252.318) scale(40.8275)" gradientUnits="userSpaceOnUse"><stop offset=".446" stop-color="#fff" stop-opacity="0"/><stop offset=".841" stop-color="#fff"/></radialGradient><radialGradient id="x" cx="0" cy="0" r="1" gradientTransform="rotate(108.435 43.402 207.892) scale(42.2832)" gradientUnits="userSpaceOnUse"><stop stop-color="#BCF2FF"/><stop offset=".25" stop-color="#4ECBFF"/><stop offset=".645" stop-color="#0083F5"/><stop offset="1" stop-color="#C955FF"/></radialGradient><radialGradient id="y" cx="0" cy="0" r="1" gradientTransform="rotate(97.815 19.037 230.515) scale(40.8275)" gradientUnits="userSpaceOnUse"><stop offset=".446" stop-color="#fff" stop-opacity="0"/><stop offset=".841" stop-color="#fff"/></radialGradient><radialGradient id="z" cx="0" cy="0" r="1" gradientTransform="rotate(108.435 18.402 189.873) scale(42.2832)" gradientUnits="userSpaceOnUse"><stop offset=".068" stop-color="#FFC56D"/><stop offset=".25" stop-color="#FF9B04"/><stop offset=".645" stop-color="#E66000"/><stop offset="1" stop-color="#CBFBB5"/></radialGradient><radialGradient id="A" cx="0" cy="0" r="1" gradientTransform="rotate(97.815 -5.963 208.712) scale(40.8275)" gradientUnits="userSpaceOnUse"><stop offset=".446" stop-color="#fff" stop-opacity="0"/><stop offset=".841" stop-color="#fff"/></radialGradient><linearGradient id="a" x1="438.061" x2="373.052" y1="167.456" y2="479.452" gradientUnits="userSpaceOnUse"><stop offset=".368" stop-color="#E7E7E7"/><stop offset=".714" stop-color="#C9F5FF"/></linearGradient><linearGradient id="g" x1="247.115" x2="248.11" y1="311" y2="176" gradientUnits="userSpaceOnUse"><stop offset=".606" stop-color="#FFF0E4" stop-opacity="0"/><stop offset=".851" stop-color="#B9A69A"/></linearGradient><clipPath id="k"><path fill="#fff" d="M159 181h169.5v124H159z"/></clipPath></defs></svg>